<?xml version="1.0" encoding="UTF-8" standalone="no"?>
<!DOCTYPE svg PUBLIC "-//W3C//DTD SVG 1.1//EN" "http://www.w3.org/Graphics/SVG/1.1/DTD/svg11.dtd">
<svg width="100%" height="100%" viewBox="0 0 1200 1200" version="1.1" xmlns="http://www.w3.org/2000/svg" xmlns:xlink="http://www.w3.org/1999/xlink" xml:space="preserve" xmlns:serif="http://www.serif.com/" style="fill-rule:evenodd;clip-rule:evenodd;stroke-linejoin:round;stroke-miterlimit:2;">
    <g transform="matrix(1.2694,0,0,1.2694,-45.6061,-208.346)">
        <circle cx="508.59" cy="636.791" r="472.663"/>
    </g>
    <g transform="matrix(1,0,0,1,-530.549,131.983)">
        <g transform="matrix(833.333,0,0,833.333,645.929,696.899)">
            <path d="M0.077,-0L0.077,-0.546L0.163,-0.546L0.163,-0.424L0.156,-0.424C0.164,-0.453 0.176,-0.478 0.192,-0.497C0.208,-0.517 0.227,-0.531 0.248,-0.541C0.27,-0.551 0.292,-0.556 0.316,-0.556C0.356,-0.556 0.388,-0.543 0.412,-0.519C0.437,-0.495 0.453,-0.463 0.46,-0.423L0.448,-0.423C0.455,-0.45 0.467,-0.474 0.484,-0.494C0.501,-0.514 0.522,-0.529 0.547,-0.54C0.571,-0.55 0.598,-0.556 0.627,-0.556C0.659,-0.556 0.687,-0.549 0.713,-0.535C0.739,-0.521 0.76,-0.501 0.776,-0.473C0.791,-0.445 0.799,-0.41 0.799,-0.368L0.799,-0L0.711,-0L0.711,-0.366C0.711,-0.405 0.7,-0.433 0.678,-0.45C0.656,-0.467 0.63,-0.476 0.601,-0.476C0.576,-0.476 0.555,-0.47 0.537,-0.46C0.52,-0.45 0.506,-0.436 0.496,-0.418C0.487,-0.4 0.482,-0.38 0.482,-0.356L0.482,-0L0.394,-0L0.394,-0.375C0.394,-0.405 0.384,-0.429 0.364,-0.448C0.344,-0.466 0.318,-0.476 0.287,-0.476C0.266,-0.476 0.246,-0.471 0.227,-0.461C0.209,-0.451 0.194,-0.436 0.182,-0.417C0.171,-0.397 0.165,-0.373 0.165,-0.344L0.165,-0L0.077,-0Z" style="fill:white;fill-rule:nonzero;"/>
        </g>
        <g transform="matrix(833.333,0,0,833.333,1375.91,696.899)">
            <path d="M0.144,0.006C0.126,0.006 0.11,-0 0.097,-0.013C0.085,-0.026 0.078,-0.041 0.078,-0.06C0.078,-0.078 0.085,-0.093 0.097,-0.106C0.11,-0.119 0.126,-0.125 0.144,-0.125C0.162,-0.125 0.178,-0.119 0.191,-0.106C0.204,-0.093 0.21,-0.078 0.21,-0.06C0.21,-0.041 0.204,-0.026 0.191,-0.013C0.178,-0 0.162,0.006 0.144,0.006ZM0.144,-0.389C0.126,-0.389 0.11,-0.395 0.097,-0.408C0.085,-0.421 0.078,-0.436 0.078,-0.455C0.078,-0.473 0.085,-0.488 0.097,-0.501C0.11,-0.514 0.126,-0.521 0.144,-0.521C0.162,-0.521 0.178,-0.514 0.191,-0.501C0.204,-0.488 0.21,-0.473 0.21,-0.455C0.21,-0.436 0.204,-0.421 0.191,-0.408C0.178,-0.395 0.162,-0.389 0.144,-0.389Z" style="fill:white;fill-rule:nonzero;"/>
        </g>
    </g>
</svg>
